<?xml version="1.0" standalone="no"?><!DOCTYPE svg PUBLIC "-//W3C//DTD SVG 1.1//EN" "http://www.w3.org/Graphics/SVG/1.1/DTD/svg11.dtd"><svg t="1608862081272" class="icon" viewBox="0 0 1024 1024" version="1.1" xmlns="http://www.w3.org/2000/svg" p-id="1253" xmlns:xlink="http://www.w3.org/1999/xlink" width="80" height="80"><defs><style type="text/css"></style></defs><path d="M124.8 653.6c-2.1-8.6 4-23.8 24-43.6-5.4-21.5-8.8-43.8-10.2-66.6-21.3 16.2-38 32.5-49.9 48.5C65.1 624 65 650.5 69 667.1c7.7 31.9 40.3 71.3 149.2 82.6-16.2-20.1-30.2-42-41.9-65.3-35.8-9.3-49.5-22.4-51.5-30.8zM956.8 452.6c-7-28.8-34.3-64.1-121-78.8 9 20.3 16.2 41.6 21.4 63.6 27.1 8.2 41.4 18.9 43.8 28.6 2.1 8.6-4.5 27.3-34 52.9v2.6c0 25.5-2.6 50.3-7.6 74.3 93.9-60.5 105.2-111 97.4-143.2z" fill="#bfbfbf" p-id="1254"></path><path d="M551.2 717.8c-95.3 23-188.4 35.1-267.3 35.1-15.5 0-30.5-0.5-44.8-1.4-7.2-0.5-14.2-1.1-20.8-1.8C285.1 832.8 387.6 886 502.5 886c175.8 0 322.6-124.5 356.9-290.2-4.9 3.1-10 6.3-15.3 9.5-75 45-179 85-292.9 112.5zM148.8 610c6.5 26.1 15.8 51 27.6 74.5 16.9 4.4 38.7 8 66.5 9.8 81.7 5.4 186.3-6.1 294.7-32.3 108.3-26.2 206.7-63.8 276.9-105.9 22.6-13.6 39.7-26 52.5-37.2-0.2-28-3.6-55.3-9.7-81.5 7.3-17.2-8.5-52.2-21.4-63.6-56.7-127.7-184.6-216.7-333.3-216.7-201.4 0-364.6 163.1-364.6 364.4 0 7.3 0.2 14.6 0.7 21.9-1.6 6.5-2.3 52.4 10.1 66.6z m224.5-196.3c19.3 0 35 15.7 35 35s-15.7 35-35 35-35-15.7-35-35 15.7-35 35-35z" fill="#1afa29" p-id="1255"></path></svg>